<svg viewBox="0 0 31.415 31.415"><path fill="{{ include.icon-color }}" d="M15.758,8.901c-0.255-0.449-0.571-0.822-0.945-1.118c-0.377-0.297-0.812-0.445-1.308-0.445c-0.319,0-0.63,0.072-0.934,0.216c-0.305,0.146-0.553,0.337-0.743,0.577c-0.207,0.258-0.348,0.538-0.42,0.843s-0.107,0.617-0.107,0.938c0,0.401,0.061,0.851,0.18,1.348s0.305,0.962,0.553,1.395c0.247,0.433,0.558,0.798,0.934,1.095c0.375,0.296,0.819,0.444,1.33,0.444c0.303,0,0.603-0.064,0.899-0.193c0.294-0.127,0.538-0.288,0.729-0.479c0.273-0.273,0.441-0.577,0.503-0.915c0.064-0.336,0.098-0.616,0.098-0.842c0-0.433-0.064-0.905-0.192-1.419C16.208,9.831,16.014,9.351,15.758,8.901zM14.98,18.051h-0.3c-0.047,0-0.16,0.004-0.336,0.014c-0.176,0.008-0.382,0.023-0.622,0.047s-0.495,0.063-0.767,0.12c-0.273,0.055-0.536,0.123-0.792,0.203c-0.127,0.049-0.308,0.123-0.538,0.229c-0.232,0.104-0.461,0.251-0.683,0.442c-0.225,0.191-0.422,0.432-0.589,0.72c-0.168,0.287-0.252,0.647-0.252,1.079c0,0.862,0.38,1.566,1.139,2.108c0.76,0.544,1.787,0.815,3.08,0.815c1.151,0,2.025-0.244,2.626-0.731c0.599-0.488,0.897-1.106,0.897-1.857c0-0.304-0.051-0.579-0.154-0.827c-0.105-0.247-0.262-0.491-0.469-0.731c-0.209-0.239-0.479-0.487-0.815-0.742c-0.335-0.256-0.728-0.543-1.174-0.862C15.136,18.061,15.052,18.051,14.98,18.051z M15.708,0C7.033,0,0,7.033,0,15.708s7.032,15.707,15.707,15.707s15.707-7.032,15.707-15.707S24.382,0,15.708,0z M17.438,7.854c0.191,0.184,0.375,0.407,0.55,0.672c0.176,0.264,0.328,0.571,0.456,0.923c0.127,0.353,0.191,0.752,0.191,1.201c0,0.447-0.057,0.84-0.167,1.175c-0.111,0.337-0.264,0.637-0.457,0.9c-0.19,0.264-0.405,0.504-0.646,0.72c-0.24,0.217-0.487,0.421-0.743,0.612c-0.16,0.16-0.312,0.328-0.456,0.504c-0.143,0.175-0.215,0.401-0.215,0.672c0,0.271,0.072,0.484,0.215,0.636c0.145,0.152,0.28,0.285,0.407,0.396l0.864,0.671c0.256,0.227,0.507,0.448,0.755,0.673s0.462,0.465,0.646,0.722c0.184,0.256,0.332,0.543,0.445,0.862c0.11,0.32,0.167,0.688,0.167,1.104c0,0.56-0.136,1.111-0.407,1.655c-0.273,0.545-0.671,1.028-1.199,1.453c-0.527,0.424-1.187,0.767-1.977,1.032c-0.792,0.264-1.699,0.396-2.721,0.396c-0.862,0-1.617-0.095-2.265-0.286c-0.647-0.193-1.186-0.449-1.619-0.769c-0.431-0.32-0.75-0.683-0.957-1.091c-0.208-0.407-0.313-0.835-0.313-1.281c0-0.431,0.132-0.923,0.396-1.475s0.748-1.034,1.449-1.449c0.369-0.225,0.763-0.403,1.188-0.54c0.421-0.137,0.843-0.244,1.258-0.324c0.416-0.079,0.806-0.135,1.174-0.167c0.367-0.032,0.687-0.056,0.958-0.07c-0.176-0.225-0.34-0.461-0.491-0.708c-0.152-0.248-0.227-0.557-0.227-0.923c0-0.207,0.023-0.379,0.07-0.516c0.049-0.136,0.105-0.276,0.17-0.421c-0.129,0.018-0.258,0.029-0.385,0.037c-0.129,0.01-0.255,0.012-0.384,0.012c-0.638,0-1.205-0.107-1.701-0.322c-0.495-0.218-0.91-0.499-1.246-0.852c-0.336-0.352-0.591-0.756-0.767-1.211c-0.178-0.455-0.266-0.914-0.266-1.378c0-0.559,0.129-1.122,0.385-1.69c0.255-0.566,0.64-1.073,1.15-1.521c0.687-0.56,1.41-0.918,2.169-1.078s1.465-0.24,2.12-0.24h4.938l-1.535,0.839h-1.483C17.077,7.521,17.245,7.67,17.438,7.854z M26.321,14.56h-2.312v2.33h-0.985v-2.33h-2.313v-0.974h2.313v-2.313h0.985v2.313h2.312V14.56z"/></svg>